<mxfile host="app.diagrams.net" agent="Mozilla/5.0 (Windows NT 10.0; Win64; x64) AppleWebKit/537.36 (KHTML, like Gecko) Chrome/122.0.0.0 Safari/537.36" version="26.2.14">
  <diagram name="Page-1" id="cg26zeHAfPYSLwBz31Go">
    <mxGraphModel dx="987" dy="1061" grid="0" gridSize="10" guides="1" tooltips="1" connect="1" arrows="1" fold="1" page="0" pageScale="1" pageWidth="827" pageHeight="1169" math="0" shadow="0">
      <root>
        <mxCell id="0" />
        <mxCell id="1" parent="0" />
        <mxCell id="hbbTRyOxC2RGxaQ1tcMn-1" value="User" style="rounded=0;whiteSpace=wrap;html=1;" vertex="1" parent="1">
          <mxGeometry x="1410" y="370" width="80" height="35" as="geometry" />
        </mxCell>
        <mxCell id="hbbTRyOxC2RGxaQ1tcMn-2" value="Rates" style="rhombus;whiteSpace=wrap;html=1;" vertex="1" parent="1">
          <mxGeometry x="1485" y="478" width="80" height="45" as="geometry" />
        </mxCell>
        <mxCell id="hbbTRyOxC2RGxaQ1tcMn-3" value="" style="endArrow=none;html=1;rounded=0;entryX=0.5;entryY=0;entryDx=0;entryDy=0;exitX=0.5;exitY=1;exitDx=0;exitDy=0;" edge="1" parent="1" source="hbbTRyOxC2RGxaQ1tcMn-1" target="hbbTRyOxC2RGxaQ1tcMn-2">
          <mxGeometry width="50" height="50" relative="1" as="geometry">
            <mxPoint x="1260" y="420" as="sourcePoint" />
            <mxPoint x="1310" y="370" as="targetPoint" />
            <Array as="points" />
          </mxGeometry>
        </mxCell>
        <mxCell id="hbbTRyOxC2RGxaQ1tcMn-4" value="Bookclub" style="rounded=0;whiteSpace=wrap;html=1;" vertex="1" parent="1">
          <mxGeometry x="1410" y="110" width="80" height="35" as="geometry" />
        </mxCell>
        <mxCell id="hbbTRyOxC2RGxaQ1tcMn-5" value="Book" style="rounded=0;whiteSpace=wrap;html=1;" vertex="1" parent="1">
          <mxGeometry x="1410" y="587.5" width="80" height="35" as="geometry" />
        </mxCell>
        <mxCell id="hbbTRyOxC2RGxaQ1tcMn-6" value="" style="endArrow=none;html=1;rounded=0;entryX=0.5;entryY=0;entryDx=0;entryDy=0;exitX=0.5;exitY=1;exitDx=0;exitDy=0;" edge="1" parent="1" source="hbbTRyOxC2RGxaQ1tcMn-2" target="hbbTRyOxC2RGxaQ1tcMn-5">
          <mxGeometry width="50" height="50" relative="1" as="geometry">
            <mxPoint x="1500" y="437.5" as="sourcePoint" />
            <mxPoint x="1550" y="387.5" as="targetPoint" />
          </mxGeometry>
        </mxCell>
        <mxCell id="hbbTRyOxC2RGxaQ1tcMn-7" value="Author" style="ellipse;whiteSpace=wrap;html=1;" vertex="1" parent="1">
          <mxGeometry x="1260" y="680" width="80" height="20" as="geometry" />
        </mxCell>
        <mxCell id="hbbTRyOxC2RGxaQ1tcMn-8" value="Title" style="ellipse;whiteSpace=wrap;html=1;" vertex="1" parent="1">
          <mxGeometry x="1360" y="680" width="80" height="20" as="geometry" />
        </mxCell>
        <mxCell id="hbbTRyOxC2RGxaQ1tcMn-9" value="&lt;u&gt;BookID&lt;/u&gt;" style="ellipse;whiteSpace=wrap;html=1;" vertex="1" parent="1">
          <mxGeometry x="1550" y="680" width="80" height="20" as="geometry" />
        </mxCell>
        <mxCell id="hbbTRyOxC2RGxaQ1tcMn-10" value="" style="endArrow=none;html=1;rounded=0;exitX=1;exitY=0.25;exitDx=0;exitDy=0;entryX=0;entryY=0.5;entryDx=0;entryDy=0;" edge="1" parent="1" target="hbbTRyOxC2RGxaQ1tcMn-11">
          <mxGeometry width="50" height="50" relative="1" as="geometry">
            <mxPoint x="1490" y="604.66" as="sourcePoint" />
            <mxPoint x="1560" y="600" as="targetPoint" />
          </mxGeometry>
        </mxCell>
        <mxCell id="hbbTRyOxC2RGxaQ1tcMn-11" value="Has" style="rhombus;whiteSpace=wrap;html=1;" vertex="1" parent="1">
          <mxGeometry x="1580" y="582.5" width="80" height="45" as="geometry" />
        </mxCell>
        <mxCell id="hbbTRyOxC2RGxaQ1tcMn-12" value="Book&lt;div&gt;Comment&lt;/div&gt;" style="rounded=0;whiteSpace=wrap;html=1;" vertex="1" parent="1">
          <mxGeometry x="1730" y="587.5" width="80" height="35" as="geometry" />
        </mxCell>
        <mxCell id="hbbTRyOxC2RGxaQ1tcMn-13" value="" style="endArrow=none;html=1;rounded=0;entryX=1;entryY=0.5;entryDx=0;entryDy=0;exitX=0;exitY=0.5;exitDx=0;exitDy=0;" edge="1" parent="1" source="hbbTRyOxC2RGxaQ1tcMn-12" target="hbbTRyOxC2RGxaQ1tcMn-11">
          <mxGeometry width="50" height="50" relative="1" as="geometry">
            <mxPoint x="1410" y="430" as="sourcePoint" />
            <mxPoint x="1460" y="380" as="targetPoint" />
          </mxGeometry>
        </mxCell>
        <mxCell id="hbbTRyOxC2RGxaQ1tcMn-14" value="&lt;u&gt;CommentID&lt;/u&gt;" style="ellipse;whiteSpace=wrap;html=1;" vertex="1" parent="1">
          <mxGeometry x="1866" y="548" width="80" height="20" as="geometry" />
        </mxCell>
        <mxCell id="hbbTRyOxC2RGxaQ1tcMn-15" value="Content" style="ellipse;whiteSpace=wrap;html=1;" vertex="1" parent="1">
          <mxGeometry x="1866" y="644" width="80" height="20" as="geometry" />
        </mxCell>
        <mxCell id="hbbTRyOxC2RGxaQ1tcMn-16" value="" style="endArrow=none;html=1;rounded=0;entryX=0.5;entryY=1;entryDx=0;entryDy=0;exitX=0.5;exitY=0;exitDx=0;exitDy=0;" edge="1" parent="1" source="hbbTRyOxC2RGxaQ1tcMn-8" target="hbbTRyOxC2RGxaQ1tcMn-5">
          <mxGeometry width="50" height="50" relative="1" as="geometry">
            <mxPoint x="1480" y="670" as="sourcePoint" />
            <mxPoint x="1530" y="620" as="targetPoint" />
          </mxGeometry>
        </mxCell>
        <mxCell id="hbbTRyOxC2RGxaQ1tcMn-17" value="" style="endArrow=none;html=1;rounded=0;entryX=0.25;entryY=1;entryDx=0;entryDy=0;" edge="1" parent="1" target="hbbTRyOxC2RGxaQ1tcMn-5">
          <mxGeometry width="50" height="50" relative="1" as="geometry">
            <mxPoint x="1300" y="680" as="sourcePoint" />
            <mxPoint x="1365" y="610" as="targetPoint" />
            <Array as="points">
              <mxPoint x="1340" y="660" />
            </Array>
          </mxGeometry>
        </mxCell>
        <mxCell id="hbbTRyOxC2RGxaQ1tcMn-18" value="" style="endArrow=none;html=1;rounded=0;exitX=0.75;exitY=1;exitDx=0;exitDy=0;entryX=0.5;entryY=0;entryDx=0;entryDy=0;" edge="1" parent="1" source="hbbTRyOxC2RGxaQ1tcMn-5" target="hbbTRyOxC2RGxaQ1tcMn-9">
          <mxGeometry width="50" height="50" relative="1" as="geometry">
            <mxPoint x="1680" y="630" as="sourcePoint" />
            <mxPoint x="1570" y="680" as="targetPoint" />
            <Array as="points">
              <mxPoint x="1550" y="660" />
            </Array>
          </mxGeometry>
        </mxCell>
        <mxCell id="hbbTRyOxC2RGxaQ1tcMn-19" value="&lt;u&gt;UserID&lt;/u&gt;" style="ellipse;whiteSpace=wrap;html=1;" vertex="1" parent="1">
          <mxGeometry x="1325" y="408" width="80" height="20" as="geometry" />
        </mxCell>
        <mxCell id="hbbTRyOxC2RGxaQ1tcMn-20" value="Username" style="ellipse;whiteSpace=wrap;html=1;" vertex="1" parent="1">
          <mxGeometry x="1505" y="408" width="80" height="20" as="geometry" />
        </mxCell>
        <mxCell id="hbbTRyOxC2RGxaQ1tcMn-23" value="&lt;u&gt;ClubID&lt;/u&gt;" style="ellipse;whiteSpace=wrap;html=1;" vertex="1" parent="1">
          <mxGeometry x="1310" y="45" width="80" height="20" as="geometry" />
        </mxCell>
        <mxCell id="hbbTRyOxC2RGxaQ1tcMn-24" value="ClubName" style="ellipse;whiteSpace=wrap;html=1;" vertex="1" parent="1">
          <mxGeometry x="1410" y="45" width="80" height="20" as="geometry" />
        </mxCell>
        <mxCell id="hbbTRyOxC2RGxaQ1tcMn-25" value="Description" style="ellipse;whiteSpace=wrap;html=1;" vertex="1" parent="1">
          <mxGeometry x="1510" y="45" width="80" height="20" as="geometry" />
        </mxCell>
        <mxCell id="hbbTRyOxC2RGxaQ1tcMn-26" value="" style="endArrow=none;html=1;rounded=0;entryX=0.5;entryY=0;entryDx=0;entryDy=0;exitX=0.5;exitY=1;exitDx=0;exitDy=0;" edge="1" parent="1" source="hbbTRyOxC2RGxaQ1tcMn-24" target="hbbTRyOxC2RGxaQ1tcMn-4">
          <mxGeometry width="50" height="50" relative="1" as="geometry">
            <mxPoint x="1270" y="370" as="sourcePoint" />
            <mxPoint x="1320" y="320" as="targetPoint" />
          </mxGeometry>
        </mxCell>
        <mxCell id="hbbTRyOxC2RGxaQ1tcMn-27" value="" style="endArrow=none;html=1;rounded=0;entryX=0.25;entryY=0;entryDx=0;entryDy=0;exitX=0.5;exitY=1;exitDx=0;exitDy=0;" edge="1" parent="1" source="hbbTRyOxC2RGxaQ1tcMn-23" target="hbbTRyOxC2RGxaQ1tcMn-4">
          <mxGeometry width="50" height="50" relative="1" as="geometry">
            <mxPoint x="1270" y="370" as="sourcePoint" />
            <mxPoint x="1320" y="320" as="targetPoint" />
            <Array as="points">
              <mxPoint x="1380" y="100" />
            </Array>
          </mxGeometry>
        </mxCell>
        <mxCell id="hbbTRyOxC2RGxaQ1tcMn-28" value="" style="endArrow=none;html=1;rounded=0;entryX=0.75;entryY=0;entryDx=0;entryDy=0;exitX=0.5;exitY=1;exitDx=0;exitDy=0;" edge="1" parent="1" source="hbbTRyOxC2RGxaQ1tcMn-25" target="hbbTRyOxC2RGxaQ1tcMn-4">
          <mxGeometry width="50" height="50" relative="1" as="geometry">
            <mxPoint x="1270" y="370" as="sourcePoint" />
            <mxPoint x="1320" y="320" as="targetPoint" />
            <Array as="points">
              <mxPoint x="1520" y="100" />
            </Array>
          </mxGeometry>
        </mxCell>
        <mxCell id="hbbTRyOxC2RGxaQ1tcMn-29" value="Adds new" style="rhombus;whiteSpace=wrap;html=1;" vertex="1" parent="1">
          <mxGeometry x="1150" y="355" width="80" height="45" as="geometry" />
        </mxCell>
        <mxCell id="hbbTRyOxC2RGxaQ1tcMn-30" value="" style="endArrow=none;html=1;rounded=0;entryX=0.5;entryY=0;entryDx=0;entryDy=0;exitX=0.5;exitY=1;exitDx=0;exitDy=0;" edge="1" parent="1" source="hbbTRyOxC2RGxaQ1tcMn-4" target="hbbTRyOxC2RGxaQ1tcMn-33">
          <mxGeometry width="50" height="50" relative="1" as="geometry">
            <mxPoint x="1220" y="410" as="sourcePoint" />
            <mxPoint x="1450" y="185" as="targetPoint" />
          </mxGeometry>
        </mxCell>
        <mxCell id="hbbTRyOxC2RGxaQ1tcMn-31" value="Joins" style="rhombus;whiteSpace=wrap;html=1;" vertex="1" parent="1">
          <mxGeometry x="1340" y="280" width="80" height="45" as="geometry" />
        </mxCell>
        <mxCell id="hbbTRyOxC2RGxaQ1tcMn-32" value="Creates" style="rhombus;whiteSpace=wrap;html=1;" vertex="1" parent="1">
          <mxGeometry x="1490" y="280" width="80" height="45" as="geometry" />
        </mxCell>
        <mxCell id="hbbTRyOxC2RGxaQ1tcMn-33" value="Membership" style="rounded=0;whiteSpace=wrap;html=1;" vertex="1" parent="1">
          <mxGeometry x="1340" y="210" width="80" height="35" as="geometry" />
        </mxCell>
        <mxCell id="hbbTRyOxC2RGxaQ1tcMn-34" value="" style="endArrow=none;html=1;rounded=0;entryX=0.5;entryY=0;entryDx=0;entryDy=0;exitX=0.5;exitY=1;exitDx=0;exitDy=0;" edge="1" parent="1" source="hbbTRyOxC2RGxaQ1tcMn-33" target="hbbTRyOxC2RGxaQ1tcMn-31">
          <mxGeometry width="50" height="50" relative="1" as="geometry">
            <mxPoint x="1160" y="410" as="sourcePoint" />
            <mxPoint x="1210" y="360" as="targetPoint" />
          </mxGeometry>
        </mxCell>
        <mxCell id="hbbTRyOxC2RGxaQ1tcMn-35" value="" style="endArrow=none;html=1;rounded=0;entryX=0.5;entryY=0;entryDx=0;entryDy=0;exitX=0.5;exitY=1;exitDx=0;exitDy=0;" edge="1" parent="1" source="hbbTRyOxC2RGxaQ1tcMn-31" target="hbbTRyOxC2RGxaQ1tcMn-1">
          <mxGeometry width="50" height="50" relative="1" as="geometry">
            <mxPoint x="1160" y="410" as="sourcePoint" />
            <mxPoint x="1210" y="360" as="targetPoint" />
          </mxGeometry>
        </mxCell>
        <mxCell id="hbbTRyOxC2RGxaQ1tcMn-36" value="" style="endArrow=none;html=1;rounded=0;exitX=0.5;exitY=1;exitDx=0;exitDy=0;" edge="1" parent="1" source="hbbTRyOxC2RGxaQ1tcMn-32">
          <mxGeometry width="50" height="50" relative="1" as="geometry">
            <mxPoint x="1160" y="410" as="sourcePoint" />
            <mxPoint x="1450" y="370" as="targetPoint" />
          </mxGeometry>
        </mxCell>
        <mxCell id="hbbTRyOxC2RGxaQ1tcMn-37" value="UserID" style="ellipse;whiteSpace=wrap;html=1;" vertex="1" parent="1">
          <mxGeometry x="1235" y="250" width="80" height="20" as="geometry" />
        </mxCell>
        <mxCell id="hbbTRyOxC2RGxaQ1tcMn-38" value="" style="endArrow=none;html=1;rounded=0;entryX=0;entryY=0.25;entryDx=0;entryDy=0;exitX=1;exitY=0.5;exitDx=0;exitDy=0;" edge="1" parent="1" source="hbbTRyOxC2RGxaQ1tcMn-29" target="hbbTRyOxC2RGxaQ1tcMn-1">
          <mxGeometry width="50" height="50" relative="1" as="geometry">
            <mxPoint x="1490" y="410" as="sourcePoint" />
            <mxPoint x="1540" y="360" as="targetPoint" />
            <Array as="points" />
          </mxGeometry>
        </mxCell>
        <mxCell id="hbbTRyOxC2RGxaQ1tcMn-39" value="" style="endArrow=none;html=1;rounded=0;entryX=0.5;entryY=1;entryDx=0;entryDy=0;exitX=0;exitY=0.25;exitDx=0;exitDy=0;" edge="1" parent="1" source="hbbTRyOxC2RGxaQ1tcMn-5" target="hbbTRyOxC2RGxaQ1tcMn-29">
          <mxGeometry width="50" height="50" relative="1" as="geometry">
            <mxPoint x="1490" y="410" as="sourcePoint" />
            <mxPoint x="1540" y="360" as="targetPoint" />
            <Array as="points">
              <mxPoint x="1190" y="596" />
            </Array>
          </mxGeometry>
        </mxCell>
        <mxCell id="hbbTRyOxC2RGxaQ1tcMn-40" value="UserID" style="ellipse;whiteSpace=wrap;html=1;" vertex="1" parent="1">
          <mxGeometry x="1600" y="217.5" width="80" height="20" as="geometry" />
        </mxCell>
        <mxCell id="hbbTRyOxC2RGxaQ1tcMn-41" value="UserID" style="ellipse;whiteSpace=wrap;html=1;" vertex="1" parent="1">
          <mxGeometry x="1866" y="580" width="80" height="20" as="geometry" />
        </mxCell>
        <mxCell id="hbbTRyOxC2RGxaQ1tcMn-42" value="" style="endArrow=none;html=1;rounded=0;entryX=0;entryY=0.5;entryDx=0;entryDy=0;exitX=1;exitY=0.25;exitDx=0;exitDy=0;" edge="1" parent="1" source="hbbTRyOxC2RGxaQ1tcMn-12" target="hbbTRyOxC2RGxaQ1tcMn-41">
          <mxGeometry width="50" height="50" relative="1" as="geometry">
            <mxPoint x="1490" y="410" as="sourcePoint" />
            <mxPoint x="1540" y="360" as="targetPoint" />
          </mxGeometry>
        </mxCell>
        <mxCell id="hbbTRyOxC2RGxaQ1tcMn-43" value="" style="endArrow=none;html=1;rounded=0;entryX=0.5;entryY=1;entryDx=0;entryDy=0;exitX=0;exitY=0.5;exitDx=0;exitDy=0;" edge="1" parent="1" source="hbbTRyOxC2RGxaQ1tcMn-15" target="hbbTRyOxC2RGxaQ1tcMn-12">
          <mxGeometry width="50" height="50" relative="1" as="geometry">
            <mxPoint x="1490" y="410" as="sourcePoint" />
            <mxPoint x="1540" y="360" as="targetPoint" />
            <Array as="points">
              <mxPoint x="1770" y="651" />
            </Array>
          </mxGeometry>
        </mxCell>
        <mxCell id="hbbTRyOxC2RGxaQ1tcMn-44" value="" style="endArrow=none;html=1;rounded=0;entryX=0;entryY=0.5;entryDx=0;entryDy=0;exitX=0.5;exitY=0;exitDx=0;exitDy=0;" edge="1" parent="1" source="hbbTRyOxC2RGxaQ1tcMn-12" target="hbbTRyOxC2RGxaQ1tcMn-14">
          <mxGeometry width="50" height="50" relative="1" as="geometry">
            <mxPoint x="1490" y="410" as="sourcePoint" />
            <mxPoint x="1540" y="360" as="targetPoint" />
            <Array as="points">
              <mxPoint x="1770" y="558" />
            </Array>
          </mxGeometry>
        </mxCell>
        <mxCell id="hbbTRyOxC2RGxaQ1tcMn-45" value="Writes" style="rhombus;whiteSpace=wrap;html=1;" vertex="1" parent="1">
          <mxGeometry x="1710" y="360" width="80" height="45" as="geometry" />
        </mxCell>
        <mxCell id="hbbTRyOxC2RGxaQ1tcMn-46" value="" style="endArrow=none;html=1;rounded=0;entryX=1;entryY=0.25;entryDx=0;entryDy=0;exitX=0;exitY=0.5;exitDx=0;exitDy=0;" edge="1" parent="1" source="hbbTRyOxC2RGxaQ1tcMn-45" target="hbbTRyOxC2RGxaQ1tcMn-1">
          <mxGeometry width="50" height="50" relative="1" as="geometry">
            <mxPoint x="1540" y="500" as="sourcePoint" />
            <mxPoint x="1590" y="450" as="targetPoint" />
          </mxGeometry>
        </mxCell>
        <mxCell id="hbbTRyOxC2RGxaQ1tcMn-47" value="" style="endArrow=none;html=1;rounded=0;entryX=0.5;entryY=1;entryDx=0;entryDy=0;exitX=0.25;exitY=0;exitDx=0;exitDy=0;" edge="1" parent="1" source="hbbTRyOxC2RGxaQ1tcMn-12" target="hbbTRyOxC2RGxaQ1tcMn-45">
          <mxGeometry width="50" height="50" relative="1" as="geometry">
            <mxPoint x="1540" y="500" as="sourcePoint" />
            <mxPoint x="1590" y="450" as="targetPoint" />
          </mxGeometry>
        </mxCell>
        <mxCell id="hbbTRyOxC2RGxaQ1tcMn-48" value="Rating" style="ellipse;whiteSpace=wrap;html=1;" vertex="1" parent="1">
          <mxGeometry x="1450" y="680" width="80" height="20" as="geometry" />
        </mxCell>
        <mxCell id="hbbTRyOxC2RGxaQ1tcMn-49" value="" style="endArrow=none;html=1;rounded=0;entryX=0.5;entryY=1;entryDx=0;entryDy=0;exitX=0.5;exitY=0;exitDx=0;exitDy=0;" edge="1" parent="1" source="hbbTRyOxC2RGxaQ1tcMn-48" target="hbbTRyOxC2RGxaQ1tcMn-5">
          <mxGeometry width="50" height="50" relative="1" as="geometry">
            <mxPoint x="1540" y="620" as="sourcePoint" />
            <mxPoint x="1590" y="570" as="targetPoint" />
          </mxGeometry>
        </mxCell>
        <mxCell id="hbbTRyOxC2RGxaQ1tcMn-50" value="Owner" style="rounded=0;whiteSpace=wrap;html=1;" vertex="1" parent="1">
          <mxGeometry x="1490" y="210" width="80" height="35" as="geometry" />
        </mxCell>
        <mxCell id="hbbTRyOxC2RGxaQ1tcMn-51" value="" style="endArrow=none;html=1;rounded=0;exitX=0.5;exitY=0;exitDx=0;exitDy=0;" edge="1" parent="1" source="hbbTRyOxC2RGxaQ1tcMn-50">
          <mxGeometry width="50" height="50" relative="1" as="geometry">
            <mxPoint x="1540" y="420" as="sourcePoint" />
            <mxPoint x="1457" y="144" as="targetPoint" />
          </mxGeometry>
        </mxCell>
        <mxCell id="hbbTRyOxC2RGxaQ1tcMn-52" value="" style="endArrow=none;html=1;rounded=0;entryX=0;entryY=0.5;entryDx=0;entryDy=0;exitX=1;exitY=0.5;exitDx=0;exitDy=0;" edge="1" parent="1" source="hbbTRyOxC2RGxaQ1tcMn-50" target="hbbTRyOxC2RGxaQ1tcMn-40">
          <mxGeometry width="50" height="50" relative="1" as="geometry">
            <mxPoint x="1540" y="420" as="sourcePoint" />
            <mxPoint x="1590" y="370" as="targetPoint" />
          </mxGeometry>
        </mxCell>
        <mxCell id="hbbTRyOxC2RGxaQ1tcMn-53" value="" style="endArrow=none;html=1;rounded=0;entryX=0.5;entryY=1;entryDx=0;entryDy=0;exitX=0.5;exitY=0;exitDx=0;exitDy=0;" edge="1" parent="1" source="hbbTRyOxC2RGxaQ1tcMn-32" target="hbbTRyOxC2RGxaQ1tcMn-50">
          <mxGeometry width="50" height="50" relative="1" as="geometry">
            <mxPoint x="1540" y="420" as="sourcePoint" />
            <mxPoint x="1590" y="370" as="targetPoint" />
          </mxGeometry>
        </mxCell>
        <mxCell id="hbbTRyOxC2RGxaQ1tcMn-54" value="" style="endArrow=none;html=1;rounded=0;entryX=0;entryY=0.5;entryDx=0;entryDy=0;exitX=1;exitY=0.5;exitDx=0;exitDy=0;" edge="1" parent="1" source="hbbTRyOxC2RGxaQ1tcMn-37" target="hbbTRyOxC2RGxaQ1tcMn-33">
          <mxGeometry width="50" height="50" relative="1" as="geometry">
            <mxPoint x="1540" y="420" as="sourcePoint" />
            <mxPoint x="1590" y="370" as="targetPoint" />
          </mxGeometry>
        </mxCell>
        <mxCell id="hbbTRyOxC2RGxaQ1tcMn-55" value="BookDiscussion" style="rounded=0;whiteSpace=wrap;html=1;" vertex="1" parent="1">
          <mxGeometry x="1790" y="65" width="90" height="35" as="geometry" />
        </mxCell>
        <mxCell id="hbbTRyOxC2RGxaQ1tcMn-56" value="Has" style="rhombus;whiteSpace=wrap;html=1;" vertex="1" parent="1">
          <mxGeometry x="1620" y="60" width="80" height="45" as="geometry" />
        </mxCell>
        <mxCell id="hbbTRyOxC2RGxaQ1tcMn-57" value="" style="endArrow=none;html=1;rounded=0;entryX=1;entryY=0.5;entryDx=0;entryDy=0;exitX=0;exitY=1;exitDx=0;exitDy=0;" edge="1" parent="1" source="hbbTRyOxC2RGxaQ1tcMn-56" target="hbbTRyOxC2RGxaQ1tcMn-4">
          <mxGeometry width="50" height="50" relative="1" as="geometry">
            <mxPoint x="1540" y="420" as="sourcePoint" />
            <mxPoint x="1590" y="370" as="targetPoint" />
            <Array as="points">
              <mxPoint x="1570" y="128" />
            </Array>
          </mxGeometry>
        </mxCell>
        <mxCell id="hbbTRyOxC2RGxaQ1tcMn-58" value="" style="endArrow=none;html=1;rounded=0;entryX=1;entryY=0.5;entryDx=0;entryDy=0;exitX=0;exitY=0.5;exitDx=0;exitDy=0;" edge="1" parent="1" source="hbbTRyOxC2RGxaQ1tcMn-55" target="hbbTRyOxC2RGxaQ1tcMn-56">
          <mxGeometry width="50" height="50" relative="1" as="geometry">
            <mxPoint x="1540" y="420" as="sourcePoint" />
            <mxPoint x="1590" y="370" as="targetPoint" />
          </mxGeometry>
        </mxCell>
        <mxCell id="hbbTRyOxC2RGxaQ1tcMn-59" value="Adds" style="rhombus;whiteSpace=wrap;html=1;" vertex="1" parent="1">
          <mxGeometry x="1630" y="140" width="80" height="50" as="geometry" />
        </mxCell>
        <mxCell id="hbbTRyOxC2RGxaQ1tcMn-60" value="" style="endArrow=none;html=1;rounded=0;entryX=1;entryY=0.25;entryDx=0;entryDy=0;exitX=0;exitY=0.5;exitDx=0;exitDy=0;" edge="1" parent="1" source="hbbTRyOxC2RGxaQ1tcMn-59" target="hbbTRyOxC2RGxaQ1tcMn-33">
          <mxGeometry width="50" height="50" relative="1" as="geometry">
            <mxPoint x="1540" y="420" as="sourcePoint" />
            <mxPoint x="1590" y="370" as="targetPoint" />
          </mxGeometry>
        </mxCell>
        <mxCell id="hbbTRyOxC2RGxaQ1tcMn-61" value="" style="endArrow=none;html=1;rounded=0;entryX=1;entryY=0.25;entryDx=0;entryDy=0;exitX=0.5;exitY=1;exitDx=0;exitDy=0;" edge="1" parent="1" source="hbbTRyOxC2RGxaQ1tcMn-59" target="hbbTRyOxC2RGxaQ1tcMn-50">
          <mxGeometry width="50" height="50" relative="1" as="geometry">
            <mxPoint x="1540" y="420" as="sourcePoint" />
            <mxPoint x="1590" y="370" as="targetPoint" />
          </mxGeometry>
        </mxCell>
        <mxCell id="hbbTRyOxC2RGxaQ1tcMn-62" value="" style="endArrow=none;html=1;rounded=0;entryX=1;entryY=0.5;entryDx=0;entryDy=0;exitX=0;exitY=0.5;exitDx=0;exitDy=0;" edge="1" parent="1" source="hbbTRyOxC2RGxaQ1tcMn-63" target="hbbTRyOxC2RGxaQ1tcMn-59">
          <mxGeometry width="50" height="50" relative="1" as="geometry">
            <mxPoint x="1540" y="420" as="sourcePoint" />
            <mxPoint x="1590" y="370" as="targetPoint" />
          </mxGeometry>
        </mxCell>
        <mxCell id="hbbTRyOxC2RGxaQ1tcMn-63" value="Discussion&lt;div&gt;Comment&lt;/div&gt;" style="rounded=0;whiteSpace=wrap;html=1;" vertex="1" parent="1">
          <mxGeometry x="1790" y="147.5" width="90" height="35" as="geometry" />
        </mxCell>
        <mxCell id="hbbTRyOxC2RGxaQ1tcMn-64" value="&lt;u&gt;DiscussionCommentID&lt;/u&gt;" style="ellipse;whiteSpace=wrap;html=1;" vertex="1" parent="1">
          <mxGeometry x="1910" y="115" width="140" height="20" as="geometry" />
        </mxCell>
        <mxCell id="hbbTRyOxC2RGxaQ1tcMn-65" value="UserID" style="ellipse;whiteSpace=wrap;html=1;" vertex="1" parent="1">
          <mxGeometry x="1910" y="155" width="80" height="20" as="geometry" />
        </mxCell>
        <mxCell id="hbbTRyOxC2RGxaQ1tcMn-66" value="Content" style="ellipse;whiteSpace=wrap;html=1;" vertex="1" parent="1">
          <mxGeometry x="1910" y="190" width="80" height="20" as="geometry" />
        </mxCell>
        <mxCell id="hbbTRyOxC2RGxaQ1tcMn-67" value="" style="endArrow=none;html=1;rounded=0;entryX=0.5;entryY=1;entryDx=0;entryDy=0;exitX=0;exitY=0.5;exitDx=0;exitDy=0;" edge="1" parent="1" source="hbbTRyOxC2RGxaQ1tcMn-66" target="hbbTRyOxC2RGxaQ1tcMn-63">
          <mxGeometry width="50" height="50" relative="1" as="geometry">
            <mxPoint x="1540" y="430" as="sourcePoint" />
            <mxPoint x="1590" y="380" as="targetPoint" />
            <Array as="points">
              <mxPoint x="1835" y="200" />
            </Array>
          </mxGeometry>
        </mxCell>
        <mxCell id="hbbTRyOxC2RGxaQ1tcMn-68" value="" style="endArrow=none;html=1;rounded=0;entryX=1;entryY=0.5;entryDx=0;entryDy=0;exitX=0;exitY=0.5;exitDx=0;exitDy=0;" edge="1" parent="1" source="hbbTRyOxC2RGxaQ1tcMn-65" target="hbbTRyOxC2RGxaQ1tcMn-63">
          <mxGeometry width="50" height="50" relative="1" as="geometry">
            <mxPoint x="1540" y="430" as="sourcePoint" />
            <mxPoint x="1590" y="380" as="targetPoint" />
          </mxGeometry>
        </mxCell>
        <mxCell id="hbbTRyOxC2RGxaQ1tcMn-69" value="" style="endArrow=none;html=1;rounded=0;entryX=0.5;entryY=0;entryDx=0;entryDy=0;exitX=0;exitY=0.5;exitDx=0;exitDy=0;" edge="1" parent="1" source="hbbTRyOxC2RGxaQ1tcMn-64" target="hbbTRyOxC2RGxaQ1tcMn-63">
          <mxGeometry width="50" height="50" relative="1" as="geometry">
            <mxPoint x="1540" y="430" as="sourcePoint" />
            <mxPoint x="1590" y="380" as="targetPoint" />
            <Array as="points">
              <mxPoint x="1835" y="125" />
            </Array>
          </mxGeometry>
        </mxCell>
        <mxCell id="hbbTRyOxC2RGxaQ1tcMn-70" value="To" style="rhombus;whiteSpace=wrap;html=1;" vertex="1" parent="1">
          <mxGeometry x="1740" y="110" width="60" height="30" as="geometry" />
        </mxCell>
        <mxCell id="hbbTRyOxC2RGxaQ1tcMn-71" value="" style="endArrow=none;html=1;rounded=0;entryX=0;entryY=0;entryDx=0;entryDy=0;exitX=0.5;exitY=1;exitDx=0;exitDy=0;" edge="1" parent="1" source="hbbTRyOxC2RGxaQ1tcMn-70" target="hbbTRyOxC2RGxaQ1tcMn-63">
          <mxGeometry width="50" height="50" relative="1" as="geometry">
            <mxPoint x="1820" y="430" as="sourcePoint" />
            <mxPoint x="1870" y="380" as="targetPoint" />
          </mxGeometry>
        </mxCell>
        <mxCell id="hbbTRyOxC2RGxaQ1tcMn-72" value="" style="endArrow=none;html=1;rounded=0;entryX=0.5;entryY=0;entryDx=0;entryDy=0;exitX=0;exitY=1;exitDx=0;exitDy=0;" edge="1" parent="1" source="hbbTRyOxC2RGxaQ1tcMn-55" target="hbbTRyOxC2RGxaQ1tcMn-70">
          <mxGeometry width="50" height="50" relative="1" as="geometry">
            <mxPoint x="1820" y="430" as="sourcePoint" />
            <mxPoint x="1870" y="380" as="targetPoint" />
          </mxGeometry>
        </mxCell>
        <mxCell id="hbbTRyOxC2RGxaQ1tcMn-73" value="&lt;u&gt;DiscussionID&lt;/u&gt;" style="ellipse;whiteSpace=wrap;html=1;" vertex="1" parent="1">
          <mxGeometry x="1760" y="25" width="80" height="20" as="geometry" />
        </mxCell>
        <mxCell id="hbbTRyOxC2RGxaQ1tcMn-74" value="" style="endArrow=none;html=1;rounded=0;entryX=0.5;entryY=0;entryDx=0;entryDy=0;exitX=0.5;exitY=1;exitDx=0;exitDy=0;" edge="1" parent="1" source="hbbTRyOxC2RGxaQ1tcMn-73" target="hbbTRyOxC2RGxaQ1tcMn-55">
          <mxGeometry width="50" height="50" relative="1" as="geometry">
            <mxPoint x="1820" y="430" as="sourcePoint" />
            <mxPoint x="1870" y="380" as="targetPoint" />
          </mxGeometry>
        </mxCell>
        <mxCell id="hbbTRyOxC2RGxaQ1tcMn-75" value="ClubID" style="ellipse;whiteSpace=wrap;html=1;" vertex="1" parent="1">
          <mxGeometry x="1235" y="217.5" width="80" height="20" as="geometry" />
        </mxCell>
        <mxCell id="hbbTRyOxC2RGxaQ1tcMn-76" value="" style="endArrow=none;html=1;rounded=0;entryX=1;entryY=0.5;entryDx=0;entryDy=0;exitX=0;exitY=0.5;exitDx=0;exitDy=0;" edge="1" parent="1" source="hbbTRyOxC2RGxaQ1tcMn-33" target="hbbTRyOxC2RGxaQ1tcMn-75">
          <mxGeometry width="50" height="50" relative="1" as="geometry">
            <mxPoint x="1670" y="270" as="sourcePoint" />
            <mxPoint x="1720" y="220" as="targetPoint" />
          </mxGeometry>
        </mxCell>
        <mxCell id="hbbTRyOxC2RGxaQ1tcMn-77" value="ClubID" style="ellipse;whiteSpace=wrap;html=1;" vertex="1" parent="1">
          <mxGeometry x="1600" y="250" width="80" height="20" as="geometry" />
        </mxCell>
        <mxCell id="hbbTRyOxC2RGxaQ1tcMn-78" value="" style="endArrow=none;html=1;rounded=0;entryX=1;entryY=0.75;entryDx=0;entryDy=0;exitX=0;exitY=0.5;exitDx=0;exitDy=0;" edge="1" parent="1" source="hbbTRyOxC2RGxaQ1tcMn-77" target="hbbTRyOxC2RGxaQ1tcMn-50">
          <mxGeometry width="50" height="50" relative="1" as="geometry">
            <mxPoint x="1710" y="440" as="sourcePoint" />
            <mxPoint x="1760" y="390" as="targetPoint" />
          </mxGeometry>
        </mxCell>
        <mxCell id="hbbTRyOxC2RGxaQ1tcMn-79" value="&lt;u&gt;MembershipID&lt;/u&gt;" style="ellipse;whiteSpace=wrap;html=1;" vertex="1" parent="1">
          <mxGeometry x="1235" y="182.5" width="80" height="20" as="geometry" />
        </mxCell>
        <mxCell id="hbbTRyOxC2RGxaQ1tcMn-80" value="&lt;u&gt;OwnerID&lt;/u&gt;" style="ellipse;whiteSpace=wrap;html=1;" vertex="1" parent="1">
          <mxGeometry x="1600" y="280" width="80" height="20" as="geometry" />
        </mxCell>
        <mxCell id="hbbTRyOxC2RGxaQ1tcMn-81" value="" style="endArrow=none;html=1;rounded=0;entryX=1;entryY=0.5;entryDx=0;entryDy=0;exitX=0;exitY=0.25;exitDx=0;exitDy=0;" edge="1" parent="1" source="hbbTRyOxC2RGxaQ1tcMn-33" target="hbbTRyOxC2RGxaQ1tcMn-79">
          <mxGeometry width="50" height="50" relative="1" as="geometry">
            <mxPoint x="1710" y="440" as="sourcePoint" />
            <mxPoint x="1760" y="390" as="targetPoint" />
          </mxGeometry>
        </mxCell>
        <mxCell id="hbbTRyOxC2RGxaQ1tcMn-82" value="Topic" style="ellipse;whiteSpace=wrap;html=1;" vertex="1" parent="1">
          <mxGeometry x="1860" y="25" width="80" height="20" as="geometry" />
        </mxCell>
        <mxCell id="hbbTRyOxC2RGxaQ1tcMn-83" value="" style="endArrow=none;html=1;rounded=0;entryX=0.5;entryY=1;entryDx=0;entryDy=0;exitX=0.75;exitY=0;exitDx=0;exitDy=0;" edge="1" parent="1" source="hbbTRyOxC2RGxaQ1tcMn-55" target="hbbTRyOxC2RGxaQ1tcMn-82">
          <mxGeometry width="50" height="50" relative="1" as="geometry">
            <mxPoint x="1670" y="340" as="sourcePoint" />
            <mxPoint x="1720" y="290" as="targetPoint" />
          </mxGeometry>
        </mxCell>
        <mxCell id="hbbTRyOxC2RGxaQ1tcMn-84" value="BookID" style="ellipse;whiteSpace=wrap;html=1;" vertex="1" parent="1">
          <mxGeometry x="1866" y="612" width="80" height="20" as="geometry" />
        </mxCell>
        <mxCell id="hbbTRyOxC2RGxaQ1tcMn-85" value="" style="endArrow=none;html=1;rounded=0;fontSize=12;startSize=8;endSize=8;curved=1;entryX=1;entryY=0.75;entryDx=0;entryDy=0;exitX=0;exitY=0.5;exitDx=0;exitDy=0;" edge="1" parent="1" source="hbbTRyOxC2RGxaQ1tcMn-84" target="hbbTRyOxC2RGxaQ1tcMn-12">
          <mxGeometry width="50" height="50" relative="1" as="geometry">
            <mxPoint x="1710" y="614" as="sourcePoint" />
            <mxPoint x="1760" y="564" as="targetPoint" />
          </mxGeometry>
        </mxCell>
        <mxCell id="hbbTRyOxC2RGxaQ1tcMn-86" value="BookRating" style="rounded=0;whiteSpace=wrap;html=1;" vertex="1" parent="1">
          <mxGeometry x="1340" y="483" width="80" height="35" as="geometry" />
        </mxCell>
        <mxCell id="hbbTRyOxC2RGxaQ1tcMn-87" value="UserID" style="ellipse;whiteSpace=wrap;html=1;" vertex="1" parent="1">
          <mxGeometry x="1226" y="470" width="80" height="20" as="geometry" />
        </mxCell>
        <mxCell id="hbbTRyOxC2RGxaQ1tcMn-88" value="&lt;u&gt;RatingID&lt;/u&gt;" style="ellipse;whiteSpace=wrap;html=1;" vertex="1" parent="1">
          <mxGeometry x="1226" y="560" width="80" height="20" as="geometry" />
        </mxCell>
        <mxCell id="hbbTRyOxC2RGxaQ1tcMn-89" value="BookID" style="ellipse;whiteSpace=wrap;html=1;" vertex="1" parent="1">
          <mxGeometry x="1226" y="429" width="80" height="20" as="geometry" />
        </mxCell>
        <mxCell id="hbbTRyOxC2RGxaQ1tcMn-90" value="Rating" style="ellipse;whiteSpace=wrap;html=1;" vertex="1" parent="1">
          <mxGeometry x="1226" y="515" width="80" height="20" as="geometry" />
        </mxCell>
        <mxCell id="hbbTRyOxC2RGxaQ1tcMn-91" value="" style="endArrow=none;html=1;rounded=0;fontSize=12;startSize=8;endSize=8;curved=1;entryX=1;entryY=0.5;entryDx=0;entryDy=0;exitX=0.5;exitY=1;exitDx=0;exitDy=0;" edge="1" parent="1" target="hbbTRyOxC2RGxaQ1tcMn-88">
          <mxGeometry width="50" height="50" relative="1" as="geometry">
            <mxPoint x="1378" y="518" as="sourcePoint" />
            <mxPoint x="1402" y="387" as="targetPoint" />
          </mxGeometry>
        </mxCell>
        <mxCell id="hbbTRyOxC2RGxaQ1tcMn-92" value="" style="endArrow=none;html=1;rounded=0;fontSize=12;startSize=8;endSize=8;curved=1;entryX=1;entryY=0.5;entryDx=0;entryDy=0;exitX=0.5;exitY=0;exitDx=0;exitDy=0;" edge="1" parent="1" target="hbbTRyOxC2RGxaQ1tcMn-89">
          <mxGeometry width="50" height="50" relative="1" as="geometry">
            <mxPoint x="1378" y="483" as="sourcePoint" />
            <mxPoint x="1402" y="387" as="targetPoint" />
          </mxGeometry>
        </mxCell>
        <mxCell id="hbbTRyOxC2RGxaQ1tcMn-93" value="" style="endArrow=none;html=1;rounded=0;fontSize=12;startSize=8;endSize=8;curved=1;entryX=1;entryY=0.5;entryDx=0;entryDy=0;exitX=0;exitY=0.25;exitDx=0;exitDy=0;" edge="1" parent="1" target="hbbTRyOxC2RGxaQ1tcMn-87">
          <mxGeometry width="50" height="50" relative="1" as="geometry">
            <mxPoint x="1338" y="491.75" as="sourcePoint" />
            <mxPoint x="1402" y="387" as="targetPoint" />
          </mxGeometry>
        </mxCell>
        <mxCell id="hbbTRyOxC2RGxaQ1tcMn-94" value="" style="endArrow=none;html=1;rounded=0;fontSize=12;startSize=8;endSize=8;curved=1;entryX=1;entryY=0.5;entryDx=0;entryDy=0;exitX=0;exitY=0.75;exitDx=0;exitDy=0;" edge="1" parent="1" target="hbbTRyOxC2RGxaQ1tcMn-90">
          <mxGeometry width="50" height="50" relative="1" as="geometry">
            <mxPoint x="1338" y="509.25" as="sourcePoint" />
            <mxPoint x="1402" y="387" as="targetPoint" />
          </mxGeometry>
        </mxCell>
        <mxCell id="hbbTRyOxC2RGxaQ1tcMn-100" value="" style="endArrow=none;html=1;rounded=0;fontSize=12;startSize=8;endSize=8;curved=1;entryX=1;entryY=0.5;entryDx=0;entryDy=0;exitX=0;exitY=1;exitDx=0;exitDy=0;" edge="1" parent="1" source="hbbTRyOxC2RGxaQ1tcMn-45" target="hbbTRyOxC2RGxaQ1tcMn-20">
          <mxGeometry width="50" height="50" relative="1" as="geometry">
            <mxPoint x="1443" y="367" as="sourcePoint" />
            <mxPoint x="1493" y="317" as="targetPoint" />
          </mxGeometry>
        </mxCell>
        <mxCell id="hbbTRyOxC2RGxaQ1tcMn-101" value="" style="endArrow=none;html=1;rounded=0;fontSize=12;startSize=8;endSize=8;curved=1;entryX=1;entryY=0.5;entryDx=0;entryDy=0;exitX=0.5;exitY=0;exitDx=0;exitDy=0;" edge="1" parent="1" source="hbbTRyOxC2RGxaQ1tcMn-20" target="hbbTRyOxC2RGxaQ1tcMn-1">
          <mxGeometry width="50" height="50" relative="1" as="geometry">
            <mxPoint x="1443" y="367" as="sourcePoint" />
            <mxPoint x="1493" y="317" as="targetPoint" />
          </mxGeometry>
        </mxCell>
        <mxCell id="hbbTRyOxC2RGxaQ1tcMn-102" value="" style="endArrow=none;html=1;rounded=0;fontSize=12;startSize=8;endSize=8;curved=1;entryX=0;entryY=0.75;entryDx=0;entryDy=0;" edge="1" parent="1" target="hbbTRyOxC2RGxaQ1tcMn-1">
          <mxGeometry width="50" height="50" relative="1" as="geometry">
            <mxPoint x="1358" y="407" as="sourcePoint" />
            <mxPoint x="1493" y="317" as="targetPoint" />
          </mxGeometry>
        </mxCell>
        <mxCell id="hbbTRyOxC2RGxaQ1tcMn-103" value="" style="endArrow=none;html=1;rounded=0;fontSize=12;startSize=8;endSize=8;curved=1;entryX=0;entryY=0.5;entryDx=0;entryDy=0;exitX=1;exitY=0.5;exitDx=0;exitDy=0;" edge="1" parent="1" source="hbbTRyOxC2RGxaQ1tcMn-86" target="hbbTRyOxC2RGxaQ1tcMn-2">
          <mxGeometry width="50" height="50" relative="1" as="geometry">
            <mxPoint x="1443" y="367" as="sourcePoint" />
            <mxPoint x="1493" y="317" as="targetPoint" />
          </mxGeometry>
        </mxCell>
      </root>
    </mxGraphModel>
  </diagram>
</mxfile>
